<?xml version="1.0" encoding="UTF-8"?>
<svg width="2333px" height="727px" viewBox="0 0 2333 727" version="1.1" xmlns="http://www.w3.org/2000/svg" xmlns:xlink="http://www.w3.org/1999/xlink">
    <defs>
        <radialGradient cx="-45.2984294%" cy="40.5164274%" fx="-45.2984294%" fy="40.5164274%" r="163.596046%" gradientTransform="translate(-0.452984,0.405164),scale(1.000000,0.590826),rotate(-35.848427),translate(0.452984,-0.405164)" id="radialGradient-1">
            <stop stop-color="#194F9E" offset="0%"></stop>
            <stop stop-color="#1D74F2" stop-opacity="0" offset="100%"></stop>
        </radialGradient>
        <radialGradient cx="19.0633528%" cy="103.930445%" fx="19.0633528%" fy="103.930445%" r="163.596046%" gradientTransform="translate(0.190634,1.039304),scale(1.000000,0.590826),rotate(-35.848427),translate(-0.190634,-1.039304)" id="radialGradient-2">
            <stop stop-color="#194F9E" offset="0%"></stop>
            <stop stop-color="#1D74F2" stop-opacity="0" offset="100%"></stop>
        </radialGradient>
    </defs>
    <g id="Page-1" stroke="none" stroke-width="1" fill="none" fill-rule="evenodd">
        <g id="Logo-SVG" transform="translate(-94.000000, 0.000000)">
            <rect id="Rectangle" x="0.312622501" y="0.463397642" width="2055.68738" height="719.889911"></rect>
            <path d="M1287.06991,242.5 C1290.06993,235.499965 1294.40322,230.250018 1300.06991,226.75 C1305.73661,223.249982 1312.06988,221.5 1319.06991,221.5 C1329.06996,221.5 1338.06987,224.8333 1346.06991,231.5 C1354.06995,238.1667 1358.06991,246.333285 1358.06991,256 C1358.06991,261.000025 1356.90326,265.999975 1354.56991,271 L1219.56991,556 C1215.90323,563.666705 1210.40328,569.583313 1203.06991,573.75 C1195.73654,577.916687 1187.73662,580 1179.06991,580 C1170.4032,580 1162.40328,577.916687 1155.06991,573.75 C1147.73654,569.583313 1142.2366,563.666705 1138.56991,556 L1003.56991,271 C1001.23657,266.33331 1000.06991,261.500025 1000.06991,256.5 C1000.06991,246.49995 1004.23654,238.1667 1012.56991,231.5 C1020.90329,224.8333 1030.23653,221.5 1040.56991,221.5 C1047.56995,221.5 1053.98655,223.249982 1059.81991,226.75 C1065.65327,230.250018 1070.0699,235.499965 1073.06991,242.5 L1180.06991,476.5 L1287.06991,242.5 Z M1435.06991,580 C1423.06985,580 1413.56995,576.500035 1406.56991,569.5 C1399.56988,562.499965 1396.06991,553.00006 1396.06991,541 L1396.06991,260.5 C1396.06991,248.833275 1399.56988,239.500035 1406.56991,232.5 C1413.56995,225.499965 1423.06985,222 1435.06991,222 C1447.06997,222 1456.56988,225.499965 1463.56991,232.5 C1470.56995,239.500035 1474.06991,248.833275 1474.06991,260.5 L1474.06991,541 C1474.06991,553.00006 1470.56995,562.499965 1463.56991,569.5 C1456.56988,576.500035 1447.06997,580 1435.06991,580 Z M1583.06991,580 C1571.06985,580 1561.56995,576.500035 1554.56991,569.5 C1547.56988,562.499965 1544.06991,553.00006 1544.06991,541 L1544.06991,261 C1544.06991,249.333275 1547.23655,240.333365 1553.56991,234 C1559.90328,227.666635 1568.90319,224.5 1580.56991,224.5 L1706.06991,224.5 C1744.40344,224.5 1774.23647,234.16657 1795.56991,253.5 C1816.90335,272.83343 1827.56991,299.83316 1827.56991,334.5 C1827.56991,369.16684 1816.90335,396.16657 1795.56991,415.5 C1774.23647,434.83343 1744.40344,444.5 1706.06991,444.5 L1622.06991,444.5 L1622.06991,541 C1622.06991,553.00006 1618.56995,562.499965 1611.56991,569.5 C1604.56988,576.500035 1595.06997,580 1583.06991,580 Z M1696.06991,385.5 C1735.07011,385.5 1754.56991,368.666835 1754.56991,335 C1754.56991,300.99983 1735.07011,284 1696.06991,284 L1622.06991,284 L1622.06991,385.5 L1696.06991,385.5 Z M1917.06991,580 C1905.40319,580 1895.98661,576.416702 1888.81991,569.25 C1881.65321,562.083297 1878.06991,552.666725 1878.06991,541 L1878.06991,261 C1878.06991,249.333275 1881.23655,240.333365 1887.56991,234 C1893.90328,227.666635 1902.90319,224.5 1914.56991,224.5 L2086.56991,224.5 C2099.23664,224.5 2108.56988,226.999975 2114.56991,232 C2120.56994,237.000025 2123.56991,244.83328 2123.56991,255.5 C2123.56991,265.833385 2120.56994,273.499975 2114.56991,278.5 C2108.56988,283.500025 2099.23664,286 2086.56991,286 L1955.06991,286 L1955.06991,367 L2076.56991,367 C2089.23664,367 2098.56988,369.499975 2104.56991,374.5 C2110.56994,379.500025 2113.56991,387.33328 2113.56991,398 C2113.56991,408.333385 2110.56994,415.999975 2104.56991,421 C2098.56988,426.000025 2089.23664,428.5 2076.56991,428.5 L1955.06991,428.5 L1955.06991,541 C1955.06991,553.00006 1951.65328,562.499965 1944.81991,569.5 C1937.98654,576.500035 1928.73664,580 1917.06991,580 Z M2283.56991,581.5 C2257.23645,581.5 2232.73669,578.416698 2210.06991,572.25 C2187.40313,566.083302 2168.90332,557.33339 2154.56991,546 C2149.56989,542.333315 2145.98659,538.416687 2143.81991,534.25 C2141.65323,530.083313 2140.56991,524.833365 2140.56991,518.5 C2140.56991,510.166625 2143.15322,502.833365 2148.31991,496.5 C2153.4866,490.166635 2159.40321,487 2166.06991,487 C2169.7366,487 2173.31989,487.583327 2176.81991,488.75 C2180.31993,489.916673 2184.56989,491.999985 2189.56991,495 C2203.90332,504.000045 2218.40317,510.583312 2233.06991,514.75 C2247.73665,518.916688 2263.90316,521 2281.56991,521 C2303.57002,521 2320.40319,517.33337 2332.06991,510 C2343.73664,502.66663 2349.56991,492.166735 2349.56991,478.5 C2349.56991,468.166615 2344.1533,459.833365 2333.31991,453.5 C2322.48652,447.166635 2303.23672,441.166695 2275.56991,435.5 C2244.56976,429.166635 2219.82,421.500045 2201.31991,412.5 C2182.81982,403.499955 2169.31995,392.3334 2160.81991,379 C2152.31987,365.6666 2148.06991,349.500095 2148.06991,330.5 C2148.06991,309.499895 2154.15318,290.583417 2166.31991,273.75 C2178.48664,256.916583 2195.3198,243.750047 2216.81991,234.25 C2238.32002,224.749953 2262.56978,220 2289.56991,220 C2336.90348,220 2375.90309,231.833215 2406.56991,255.5 C2411.56994,259.50002 2415.15323,263.583312 2417.31991,267.75 C2419.48659,271.916688 2420.56991,276.99997 2420.56991,283 C2420.56991,291.333375 2417.9866,298.666635 2412.81991,305 C2407.65322,311.333365 2401.73661,314.5 2395.06991,314.5 C2391.40323,314.5 2387.98659,314.000005 2384.81991,313 C2381.65323,311.999995 2377.23661,309.83335 2371.56991,306.5 C2357.90318,297.83329 2345.31997,291.333355 2333.81991,287 C2322.31985,282.666645 2307.73667,280.5 2290.06991,280.5 C2269.73648,280.5 2253.73664,284.416628 2242.06991,292.25 C2230.40319,300.083372 2224.56991,310.833265 2224.56991,324.5 C2224.56991,332.50004 2226.81989,339.083307 2231.31991,344.25 C2235.81993,349.416693 2243.31986,353.99998 2253.81991,358 C2264.31996,362.00002 2279.23648,366.166645 2298.56991,370.5 C2343.90347,380.50005 2376.48648,393.333255 2396.31991,409 C2416.15334,424.666745 2426.06991,446.16653 2426.06991,473.5 C2426.06991,494.83344 2420.1533,513.666585 2408.31991,530 C2396.48652,546.333415 2379.82002,558.999955 2358.31991,568 C2336.8198,577.000045 2311.90339,581.5 2283.56991,581.5 Z" id="VIPFS" fill="#333333"></path>
            <g id="Group-3" transform="translate(94.000000, 0.000000)">
                <polygon id="Polygon" fill="#5584FF" points="320.5 0 641 181.75 641 545.25 320.5 727 3.05533376e-13 545.25 9.9475983e-14 181.75"></polygon>
                <polygon id="Triangle" fill="url(#radialGradient-1)" points="0 182 322 362.774716 322 727 1.16276587e-14 543.549432"></polygon>
                <polygon id="Triangle" fill="url(#radialGradient-2)" points="0 182 322 362.774716 322 727 1.16276587e-14 543.549432"></polygon>
            </g>
        </g>
    </g>
</svg>